<svg width="3" height="8" viewBox="0 0 3 8" fill="none" xmlns="http://www.w3.org/2000/svg">
<path fill-rule="evenodd" clip-rule="evenodd" d="M1.32701 2C1.8474 2 2.27317 1.55 2.27317 1C2.27317 0.45 1.8474 0 1.32701 0C0.806629 0 0.380859 0.45 0.380859 1C0.380859 1.55 0.806629 2 1.32701 2ZM1.32701 3C0.806629 3 0.380859 3.45 0.380859 4C0.380859 4.55 0.806629 5 1.32701 5C1.8474 5 2.27317 4.55 2.27317 4C2.27317 3.45 1.8474 3 1.32701 3ZM0.380859 7C0.380859 6.45 0.806629 6 1.32701 6C1.8474 6 2.27317 6.45 2.27317 7C2.27317 7.55 1.8474 8 1.32701 8C0.806629 8 0.380859 7.55 0.380859 7Z" fill="#818EA3"/>
</svg>
